<?xml version="1.0" encoding="utf-8"?>
<!-- Generator: Adobe Illustrator 17.1.0, SVG Export Plug-In . SVG Version: 6.00 Build 0)  -->
<!DOCTYPE svg PUBLIC "-//W3C//DTD SVG 1.1//EN" "http://www.w3.org/Graphics/SVG/1.1/DTD/svg11.dtd">
<svg version="1.1" id="Layer_1" xmlns="http://www.w3.org/2000/svg" xmlns:xlink="http://www.w3.org/1999/xlink" x="0px" y="0px"
	 viewBox="0 0 310.7 308.1" enable-background="new 0 0 310.7 308.1" xml:space="preserve">
<g>
	<path fill="#084C55" d="M228.4,295.1H82.3c-37.4,0-68-30.6-68-68V81c0-37.4,30.6-68,68-68h146.1c37.4,0,68,30.6,68,68v146.1
		C296.4,264.5,265.8,295.1,228.4,295.1z"/>
	<path fill="#FFFFFF" d="M207.8,50.5l3.5,9.9c0,0-8.5-0.7-10.7-0.7c-2,0-10.7,0.7-10.7,0.7l3.5-9.9c0.2-0.5,0.2-1,0.1-1.5l-3.3-12.5
		c-0.1-0.6,0.2-1.1,0.8-1.2l3-0.5l1.7,6.9l2.5-0.5l-0.2-6.4h5.4l-0.2,6.4l2.5,0.5l1.7-6.9l3.2,0.5c0.6,0.1,0.9,0.6,0.8,1.2
		l-3.3,12.6C207.6,49.5,207.7,50.1,207.8,50.5z"/>
	<path fill="#FFFFFF" d="M170.9,95.6l4.8,13.7c0,0-11.8-1-14.9-1c-2.8,0-14.9,1-14.9,1l4.8-13.7c0.2-0.7,0.3-1.4,0.1-2l-4.5-17.4
		c-0.2-0.8,0.3-1.5,1.1-1.7l4.1-0.6l2.3,9.5l3.4-0.7l-0.3-8.9h7.5l-0.3,8.9l3.4,0.7l2.4-9.5l4.4,0.6c0.8,0.1,1.3,0.9,1.1,1.6
		l-4.5,17.4C170.7,94.2,170.7,94.9,170.9,95.6z"/>
	<path fill="#FFFFFF" d="M266.9,117l9.3,26.5c0,0-22.8-1.9-28.9-1.9c-5.4,0-28.9,1.9-28.9,1.9l9.4-26.5c0.4-1.3,0.5-2.6,0.2-4
		l-8.8-33.7c-0.4-1.5,0.6-3,2.1-3.2l8-1.2l4.5,18.5l6.6-1.3l-0.6-17.2h14.6l-0.6,17.2l6.6,1.3l4.6-18.5l8.5,1.3
		c1.5,0.2,2.5,1.7,2.1,3.2l-8.8,33.7C266.4,114.4,266.5,115.8,266.9,117z"/>
	<path fill="#FFFFFF" d="M112.6,131.4l2.6-9.8c0.5-2,2.4-3.3,4.3-3.3H131c2.4,0,4.5,2,4.5,4.5c0,2.5-2,4.5-4.5,4.5h-8l-5.2,19.6
		c17.3,1.2,26.5,9.1,35.3,16.6v0v0c5.8,5,11.3,9.8,19.2,11.6l6.1-13.3l0.2-0.4l2.2-4.9h-8.3c-2.4,0-4.5-2-4.5-4.5
		c0-2.5,2.1-4.5,4.5-4.5h25.7c2.4,0,4.5,2,4.5,4.5c0,2.5-2,4.5-4.5,4.5h-7.6l-0.1,0.2l-2.8,6l6.8,7.6c6.4-4.2,14.1-6.6,22.2-6.6
		c11.3,0,21.5,4.6,28.9,11.9c7.3,7.4,11.9,17.6,11.9,28.9c0,11.2-4.6,21.5-11.9,28.9c-7.4,7.4-17.6,11.9-28.9,11.9
		c-11.2,0-21.5-4.6-28.8-11.9c-4.2-4.1-7.4-9.2-9.4-14.8c-1,1.7-2.1,3.3-3.5,4.6v0c-3.5,3.5-8.4,5.7-13.8,5.7
		c-5.3,0-10.2-2.2-13.8-5.7v0c-3.5-3.6-5.7-8.4-5.7-13.8c0-4.4,1.4-8.5,3.9-11.7l-31.4-37.9l-2.2,8.2c4,2,7.6,4.6,10.7,7.7
		c7.4,7.4,11.9,17.6,11.9,28.9c0,11.2-4.5,21.4-11.9,28.8l0,0c-7.4,7.4-17.6,11.9-28.8,11.9c-11.3,0-21.5-4.6-28.8-11.9
		c-7.4-7.4-12-17.6-12-28.9c0-11.2,4.6-21.5,12-28.8v0c7.4-7.4,17.6-11.9,28.8-11.9c3.4,0,6.6,0.4,9.7,1.2l1.1-4.3H74.2
		c-1.9,0-3.5-1.2-4.2-2.9v-0.1l0-0.1l-7.4-20c-0.9-2.3,0.3-4.9,2.7-5.8c0.5-0.2,1-0.3,1.5-0.3h0.1
		C82.1,131.4,97.4,131.4,112.6,131.4L112.6,131.4z M110.2,140.3L110.2,140.3h-8.4v11.2h5.4L110.2,140.3L110.2,140.3z M176.6,197.3
		L176.6,197.3c1.5-8.3,5.4-15.7,11-21.5l-3.9-4.4L173.2,194c0.7,0.5,1.2,1,1.8,1.6l0.3,0.3C175.7,196.3,176.2,196.8,176.6,197.3
		L176.6,197.3z M165.2,190.3L165.2,190.3l3.2-7c-9-2.5-15-7.8-21.2-13.1c-6.4-5.5-13.1-11.3-23.9-13.6l29.3,35.3
		c2.6-1.3,5.5-2,8.7-2C162.6,189.9,163.9,190,165.2,190.3L165.2,190.3z M116.5,181.9L116.5,181.9c-2-2-4.3-3.7-6.8-5.1l-1.4,5.9
		c-2.9,11.9-5.7,23.6-12.1,29.9c-1.7,1.7-4.6,1.7-6.3-0.1c-1.7-1.7-1.7-4.6,0-6.3c4.6-4.6,7.2-15,9.7-25.7c0.6-2.4,1.2-4.9,1.7-7.1
		c-2.4-0.6-4.9-0.9-7.4-0.9c-8.8,0-16.8,3.6-22.5,9.3l0,0c-5.8,5.8-9.3,13.7-9.3,22.5c0,8.8,3.6,16.8,9.3,22.5
		c5.7,5.8,13.7,9.3,22.5,9.3c8.8,0,16.8-3.6,22.5-9.3c5.8-5.8,9.3-13.7,9.3-22.5C125.8,195.6,122.3,187.6,116.5,181.9L116.5,181.9z
		 M239.3,181.9L239.3,181.9c-5.8-5.7-13.8-9.3-22.5-9.3c-5.9,0-11.4,1.6-16.2,4.4l26.2,29.4c1.7,1.9,1.5,4.7-0.4,6.3
		c-0.8,0.8-1.9,1.1-2.9,1.1v0h-37.1c1.5,5,4.3,9.5,7.9,13.2c5.8,5.8,13.8,9.3,22.5,9.3c8.8,0,16.8-3.6,22.5-9.3s9.3-13.7,9.3-22.5
		C248.6,195.6,245.1,187.6,239.3,181.9L239.3,181.9z M184.9,204.4L184.9,204.4v0.4h28.5l-19.8-22.2
		C188.2,188.2,184.9,196,184.9,204.4L184.9,204.4z M168.7,201.9L168.7,201.9c-0.8-0.9-1.8-1.6-3-2.1l0,0c-1.4-0.6-2.8-1-4.4-1
		c-2.5,0-4.8,0.9-6.6,2.4l0,0c-0.3,0.2-0.5,0.4-0.8,0.7c-1.9,1.9-3.1,4.5-3.1,7.4c0,2.9,1.2,5.5,3.1,7.4c1.9,1.9,4.5,3.1,7.5,3.1
		c2.9,0,5.5-1.1,7.4-3.1h0c4-4,4.1-10.6,0.2-14.7L168.7,201.9L168.7,201.9z M92.9,151.5L92.9,151.5v-11.2h-4.3v11.2H92.9L92.9,151.5
		z M79.6,140.3L79.6,140.3h-6.4l4.2,11.2h2.2V140.3L79.6,140.3z"/>
</g>
</svg>
